<svg width="172" height="64" viewBox="0 0 172 64" fill="none" xmlns="http://www.w3.org/2000/svg">
<path fill-rule="evenodd" clip-rule="evenodd" d="M169.89 24.6571C169.125 22.2261 168.059 20.0266 166.561 18.1082C165.063 16.1899 163.232 14.8007 161.068 13.7588C160.452 13.4281 159.703 13.0973 159.07 12.932C159.07 12.932 158.837 12.7997 158.621 12.7997C158.521 12.7997 158.404 12.7997 158.288 12.6839C158.205 12.6839 158.088 12.6839 158.088 12.5681L156.507 12.2374C155.341 12.0389 153.843 11.9397 152.112 12.0389C149.549 12.1547 147.285 12.7004 145.287 13.6265C143.123 14.6849 141.292 16.1733 139.794 17.9594C138.296 19.8777 137.23 21.978 136.465 24.5248C135.732 26.9393 135.399 29.6845 135.399 32.4298C135.399 35.2908 135.732 37.9368 136.481 40.3678C137.247 42.7988 138.429 44.9983 139.811 46.8175C140.893 48.0909 142.058 49.1327 143.473 50.0919C144.105 50.5219 144.638 50.8361 145.304 51.1503H145.387C145.387 51.1503 145.487 51.1503 145.487 51.2495C145.558 51.2495 145.591 51.2828 145.622 51.3136C145.649 51.3404 145.674 51.3653 145.72 51.3653C146.802 51.8945 147.984 52.1922 149.266 52.4237C153.011 53.1513 156.224 52.6387 156.224 52.6387C157.938 52.4237 159.553 51.8945 161.051 51.2495C163.298 50.1911 165.113 48.7193 166.628 46.9167C168.126 45.1306 169.191 42.8981 169.957 40.467C170.689 38.036 171.022 35.39 171.022 32.529C171.022 29.6845 170.589 27.0385 169.94 24.5909L169.89 24.6571ZM144.804 26.9724C145.237 25.3186 145.77 23.7145 146.519 22.4411C147.268 21.1842 148.234 20.1258 149.299 19.3981C150.381 18.654 151.663 18.2405 153.044 18.2405C154.443 18.2405 155.624 18.5382 156.706 19.2824C157.772 20.01 158.621 20.9361 159.37 22.1269C160.119 23.4002 160.668 24.7729 161.084 26.4597C161.534 28.1465 161.75 29.8499 161.75 31.7517V32.3801C161.75 34.282 161.534 36.1838 161.218 37.8706C160.785 39.574 160.252 41.0458 159.503 42.3358C158.754 43.5926 157.788 44.5353 156.706 45.2795C155.641 46.0237 154.376 46.3379 152.961 46.3379C151.563 46.3379 150.298 46.0071 149.216 45.2795C148.134 44.5353 147.168 43.5926 146.419 42.3027C145.653 41.0458 145.121 39.574 144.688 37.8706C144.272 36.1838 144.155 34.282 144.155 32.3801C144.272 30.561 144.488 28.6757 144.821 26.9889L144.804 26.9724ZM121.317 53.0025L117.155 57.7488L116.722 58.1788L117.155 64H123.58L130.339 56.4919V32.6117L130.139 30.7925L121.317 35.3238V53.0025Z" fill="white"/>
<path fill-rule="evenodd" clip-rule="evenodd" d="M67.1443 10.8613L62.9729 6.24851L62.4222 5.85593L62.8561 0L69.28 0.0981441L76.1879 7.52438V31.6842L75.9877 33.0255L67.1443 28.4454V10.8613ZM126.345 17.3551C127.847 19.2526 128.915 21.4281 129.682 23.8327L129.715 23.7672C130.466 26.1881 130.8 28.8053 130.8 31.6187C130.8 34.4486 130.466 37.0657 129.732 39.4703C128.965 41.8748 127.897 44.083 126.395 45.8496C124.893 47.6326 123.058 49.0884 120.805 50.1353C119.304 50.7732 117.685 51.2966 115.966 51.5093C115.966 51.5093 112.746 52.0164 108.992 51.2966C107.707 51.0676 106.522 50.7732 105.455 50.2498C105.394 50.2498 105.365 50.2189 105.337 50.1892C105.311 50.1617 105.286 50.1353 105.238 50.1353C105.238 50.0371 105.121 50.0371 105.121 50.0371H105.037C104.37 49.7263 103.836 49.4155 103.202 48.9902C101.8 48.0415 100.616 47.011 99.5311 45.7515C98.1462 43.9522 96.9615 41.7767 96.194 39.3721C95.4598 36.9676 95.1261 34.3504 95.1261 31.5206C95.1261 28.8053 95.4431 26.09 96.1773 23.7018C96.9448 21.1828 98.0127 19.1054 99.5144 17.2079C101.016 15.4413 102.852 13.9692 105.021 12.9223C107.023 12.0063 109.292 11.4665 111.862 11.352C113.597 11.2539 115.099 11.352 116.267 11.5483L117.852 11.8754C117.852 11.9899 117.969 11.9899 118.052 11.9899C118.186 12.1044 118.286 12.1044 118.386 12.1044C118.603 12.1044 118.836 12.2353 118.836 12.2353C119.47 12.3989 120.221 12.726 120.839 13.0532C123.008 14.0837 124.843 15.4577 126.345 17.3551ZM106.356 21.6408C105.605 22.9003 105.071 24.4869 104.654 26.1227L104.67 26.139C104.242 27.7863 104.123 29.6249 104.007 31.403L104.003 31.4715C104.003 33.3526 104.103 35.2337 104.537 36.9022C104.971 38.587 105.505 40.0428 106.255 41.2859C107.006 42.5618 107.974 43.4942 109.042 44.2303C110.126 44.95 111.411 45.2771 112.83 45.2771C114.214 45.2771 115.516 44.9663 116.584 44.2303C117.652 43.4942 118.619 42.5618 119.354 41.3187C120.105 40.0428 120.655 38.587 121.072 36.9022C121.406 35.2337 121.64 33.3526 121.64 31.4715V30.85C121.64 28.9689 121.406 27.2841 120.972 25.6156C120.538 23.9472 120.004 22.5895 119.254 21.33C118.503 20.1522 117.635 19.2362 116.584 18.5165C115.499 17.7804 114.315 17.486 112.913 17.486C111.495 17.486 110.227 17.8949 109.159 18.631C108.074 19.3507 107.106 20.3976 106.356 21.6408ZM80.9934 11.5156H90.0036V52H80.9934V11.5156Z" fill="white"/>
<path fill-rule="evenodd" clip-rule="evenodd" d="M85.4236 2C83.1335 2 81.2749 3.8681 81.2749 6.16987C81.2749 8.58839 83.1335 10.4398 85.4236 10.3397C87.7136 10.3397 89.5722 8.47163 89.5722 6.16987C89.5722 3.8681 87.7136 2 85.4236 2ZM31.1428 18.9964C32.6363 20.9312 33.6983 23.1496 34.4617 25.6014L34.4949 25.5347C35.2416 28.0033 35.5735 30.672 35.5735 33.5409C35.5735 36.4264 35.2416 39.0951 34.5115 41.547C33.7481 43.9989 32.6861 46.2506 31.1926 48.052C29.6991 49.8701 27.8737 51.3545 25.6334 52.422C24.1399 53.0725 22.5302 53.6063 20.821 53.8231C20.821 53.8231 17.6182 54.3402 13.8844 53.6063C12.6067 53.3728 11.4285 53.0725 10.3498 52.5388C10.2502 52.5388 10.2502 52.5388 10.1507 52.422C10.1507 52.322 10.0345 52.322 10.0345 52.322H9.95154C9.28775 52.005 8.75673 51.6881 8.12613 51.2545C6.73219 50.2871 5.55398 49.2363 4.47533 47.9519C2.98182 46.1172 1.91977 43.9989 1.15642 41.4469C0.409665 38.9951 0.077774 36.3263 0.077774 33.4408C0.077774 30.672 0.409665 27.9032 1.13983 25.468C1.90318 22.8994 2.96523 20.7811 4.45874 18.8463C5.95225 17.0449 7.77765 15.5437 9.93494 14.4762C11.9263 13.5422 14.1831 12.9918 16.7387 12.875C18.4645 12.7749 19.9581 12.875 21.1197 13.0752L22.6962 13.4088C22.6962 13.5255 22.8123 13.5255 22.8953 13.5255C23.028 13.6423 23.1276 13.6423 23.2272 13.6423C23.4429 13.6423 23.6752 13.7757 23.6752 13.7757C24.3058 13.9425 25.0526 14.2761 25.6666 14.6097C27.8239 15.6605 29.6493 17.0616 31.1428 18.9964ZM74.969 25.6014C74.2057 23.1496 73.1436 20.9312 71.6501 18.9964C70.1566 17.0616 68.3312 15.6605 66.1739 14.6097C65.5599 14.2761 64.8131 13.9425 64.1825 13.7757C64.1825 13.7757 63.9502 13.6423 63.7345 13.6423C63.6349 13.6423 63.5188 13.6423 63.4026 13.5255C63.303 13.5255 63.2035 13.5255 63.2035 13.4088L61.6104 13.0752C60.4488 12.875 58.9553 12.7749 57.246 12.875C54.6905 12.9918 52.4336 13.5422 50.4423 14.4762C48.285 15.5437 46.4596 17.0449 44.9661 18.8463C43.4725 20.7811 42.4105 22.8994 41.6471 25.468C40.917 27.9032 40.5851 30.672 40.5851 33.4408C40.5851 36.3263 40.917 38.9951 41.6637 41.4469C42.4271 43.8988 43.5887 46.1172 44.9826 47.9519C46.0613 49.2363 47.2229 50.2871 48.6334 51.2545C49.264 51.6881 50.5418 52.322 50.5418 52.322C50.5418 52.322 50.6414 52.322 50.6414 52.422C50.7125 52.422 50.7456 52.4556 50.7762 52.4867C50.8027 52.5136 50.8275 52.5388 50.8737 52.5388C51.9524 53.0725 53.114 53.3728 54.4084 53.6063C58.1421 54.3402 61.3449 53.8231 61.3449 53.8231C63.0541 53.6063 64.6638 53.0725 66.1573 52.422C68.3976 51.3545 70.2064 49.8701 71.7165 48.052C73.21 46.2506 74.272 43.9989 75.0354 41.547C75.7656 39.0951 76.0808 36.4264 76.0808 33.5409C76.0808 30.672 75.666 28.0033 75.0188 25.5347L74.969 25.6014ZM49.961 27.9366C50.3925 26.2686 50.9235 24.6507 51.6703 23.3664C52.417 22.0988 53.3795 21.0313 54.4415 20.2974C55.5202 19.5468 56.798 19.1298 58.1753 19.1298C59.5693 19.1298 60.7475 19.43 61.8261 20.1806C62.8882 20.9145 63.7345 21.8486 64.4813 23.0495C65.228 24.3338 65.759 25.7182 66.1905 27.4195C66.6385 29.1208 66.8543 30.8388 66.8543 32.7569V33.3908C66.8543 35.3089 66.6385 37.227 66.3232 38.9283C65.8918 40.6463 65.3608 42.1308 64.614 43.4318C63.8673 44.6994 62.9048 45.6502 61.8261 46.4007C60.7641 47.1513 59.5029 47.4682 58.0923 47.4682C56.6984 47.4682 55.4372 47.1346 54.3586 46.4007C53.2799 45.6502 52.3174 44.6994 51.5707 43.3984C50.8073 42.1308 50.2763 40.6463 49.8449 38.9283C49.43 37.227 49.3138 35.3089 49.3138 33.3908C49.43 31.556 49.6457 29.6546 49.9776 27.9533L49.961 27.9366ZM9.56986 27.9366C9.98473 26.2686 10.5158 24.6507 11.2625 23.3664C12.0093 22.0988 12.9717 21.0313 14.0504 20.2974C15.1124 19.5468 16.3736 19.1298 17.7842 19.1298C19.1781 19.1298 20.3563 19.43 21.435 20.1806C22.4804 20.9145 23.3433 21.8486 24.0901 23.0495C24.8369 24.3338 25.3679 25.7182 25.7993 27.4195C26.2308 29.1208 26.4631 30.8388 26.4631 32.7569L26.4299 33.3908C26.4299 35.3089 26.2308 37.227 25.8989 38.9283C25.484 40.6463 24.9364 42.1308 24.1897 43.4318C23.4595 44.6994 22.497 45.6502 21.435 46.4007C20.3729 47.1513 19.0785 47.4682 17.7012 47.4682C16.2907 47.4682 15.0129 47.1346 13.9342 46.4007C12.8722 45.6502 11.9097 44.6994 11.1629 43.3984C10.4992 42.3476 10.0013 40.8632 9.55327 39.0618C9.12181 37.3438 9.00565 35.3923 9.00565 33.4908C9.00565 31.5727 9.12181 29.6546 9.53668 27.9533L9.56986 27.9366Z" fill="white"/>
</svg>
