<svg width="83" height="31" viewBox="0 0 83 31" fill="none" xmlns="http://www.w3.org/2000/svg">
<path fill-rule="evenodd" clip-rule="evenodd" d="M81.9272 12.0851C81.5585 10.9164 81.0456 9.85893 80.3242 8.93664C79.6029 8.01436 78.7213 7.34649 77.6793 6.84559C77.3828 6.68658 77.0221 6.52756 76.7176 6.44806C76.7176 6.44806 76.6053 6.38445 76.5012 6.38445C76.4531 6.38445 76.397 6.38445 76.3409 6.32879C76.3008 6.32879 76.2447 6.32879 76.2447 6.27314L75.4833 6.11412C74.9222 6.01871 74.2009 5.97101 73.3673 6.01871C72.1331 6.07437 71.043 6.33675 70.0813 6.78199C69.0393 7.29084 68.1577 8.0064 67.4364 8.86509C66.715 9.78737 66.2021 10.7971 65.8334 12.0215C65.4807 13.1823 65.3204 14.5022 65.3204 15.822C65.3204 17.1975 65.4807 18.4696 65.8414 19.6384C66.2101 20.8071 66.7791 21.8646 67.4444 22.7392C67.9653 23.3514 68.5264 23.8523 69.2076 24.3134C69.5122 24.5201 69.7687 24.6712 70.0893 24.8223H70.1293C70.1293 24.8223 70.1774 24.8223 70.1774 24.87C70.2118 24.87 70.2277 24.8859 70.2425 24.9008C70.2554 24.9136 70.2673 24.9256 70.2896 24.9256C70.8106 25.18 71.3797 25.3232 71.9968 25.4345C73.8001 25.7843 75.347 25.5378 75.347 25.5378C76.1725 25.4345 76.95 25.18 77.6713 24.87C78.7533 24.3611 79.6269 23.6535 80.3563 22.7869C81.0776 21.9282 81.5906 20.8548 81.9593 19.6861C82.3119 18.5173 82.4722 17.2452 82.4722 15.8697C82.4722 14.5022 82.2638 13.2301 81.9513 12.0533L81.9272 12.0851ZM69.8488 13.1983C70.0572 12.4032 70.3137 11.632 70.6744 11.0197C71.035 10.4155 71.4999 9.90664 72.0128 9.5568C72.5338 9.19902 73.1509 9.00025 73.8162 9.00025C74.4894 9.00025 75.0585 9.14336 75.5794 9.50115C76.0924 9.85098 76.5012 10.2962 76.8618 10.8687C77.2225 11.4809 77.487 12.1408 77.6874 12.9518C77.9038 13.7628 78.0079 14.5817 78.0079 15.496V15.7981C78.0079 16.7125 77.9038 17.6268 77.7515 18.4378C77.5431 19.2567 77.2866 19.9643 76.9259 20.5845C76.5653 21.1888 76.1004 21.642 75.5794 21.9997C75.0665 22.3575 74.4574 22.5086 73.7761 22.5086C73.1029 22.5086 72.4937 22.3496 71.9728 21.9997C71.4518 21.642 70.9869 21.1888 70.6263 20.5686C70.2576 19.9643 70.0011 19.2567 69.7927 18.4378C69.5924 17.6268 69.5362 16.7125 69.5362 15.7981C69.5924 14.9236 69.6965 14.0172 69.8568 13.2062L69.8488 13.1983ZM58.5399 25.7127L56.5362 27.9946L56.3278 28.2013L56.5362 31H59.6299L62.8839 27.3904V15.9095L62.7877 15.0349L58.5399 17.2134V25.7127Z" fill="white"/>
<path fill-rule="evenodd" clip-rule="evenodd" d="M32.4749 5.22177L30.4506 3.00409L30.1833 2.81535L30.3939 0L33.5114 0.0471846L36.8637 3.61749V15.2328L36.7666 15.8776L32.4749 13.6757V5.22177ZM61.2046 8.34382C61.9334 9.25606 62.4517 10.302 62.8241 11.458L62.8403 11.4265C63.2047 12.5904 63.3667 13.8487 63.3667 15.2013C63.3667 16.5618 63.2047 17.8201 62.8484 18.9761C62.4759 20.1321 61.9577 21.1938 61.2289 22.0431C60.5002 22.9003 59.6095 23.6002 58.5163 24.1035C57.7875 24.4102 57.0021 24.6618 56.168 24.7641C56.168 24.7641 54.6052 25.0079 52.7833 24.6618C52.1598 24.5517 51.5849 24.4102 51.0666 24.1585C51.0372 24.1585 51.0231 24.1437 51.0095 24.1294C50.9969 24.1162 50.9847 24.1035 50.9614 24.1035C50.9614 24.0563 50.9047 24.0563 50.9047 24.0563H50.8642C50.5403 23.9069 50.2812 23.7575 49.9735 23.553C49.2933 23.0969 48.7184 22.6014 48.1921 21.9959C47.52 21.1309 46.945 20.0849 46.5726 18.9289C46.2163 17.7729 46.0543 16.5146 46.0543 15.1541C46.0543 13.8487 46.2082 12.5433 46.5645 11.3951C46.9369 10.184 47.4552 9.18528 48.184 8.27304C48.9127 7.42372 49.8034 6.71595 50.8561 6.21265C51.8278 5.77226 52.9291 5.51274 54.1761 5.45769C55.0182 5.41051 55.747 5.45769 56.3138 5.55206L57.083 5.70934C57.083 5.76439 57.1397 5.76439 57.1802 5.76439C57.245 5.81944 57.2936 5.81944 57.3422 5.81944C57.4474 5.81944 57.5608 5.88235 57.5608 5.88235C57.8685 5.96099 58.2329 6.11828 58.5325 6.27556C59.5852 6.771 60.4759 7.43158 61.2046 8.34382ZM51.5039 10.4042C51.1395 11.0098 50.8804 11.7726 50.678 12.559L50.6861 12.5668C50.4782 13.3588 50.4203 14.2427 50.3643 15.0975L50.3622 15.1305C50.3622 16.0349 50.4108 16.9393 50.6213 17.7414C50.8318 18.5514 51.0909 19.2513 51.4553 19.849C51.8197 20.4624 52.2894 20.9107 52.8076 21.2645C53.3339 21.6106 53.9574 21.7679 54.6457 21.7679C55.3178 21.7679 55.9494 21.6184 56.4676 21.2645C56.9859 20.9107 57.4555 20.4624 57.8118 19.8647C58.1762 19.2513 58.4434 18.5514 58.6459 17.7414C58.8078 16.9393 58.9212 16.0349 58.9212 15.1305V14.8317C58.9212 13.9273 58.8078 13.1173 58.5973 12.3152C58.3867 11.5131 58.1276 10.8603 57.7632 10.2548C57.3988 9.68858 56.9778 9.24819 56.4676 8.90217C55.9413 8.54829 55.3664 8.40673 54.6862 8.40673C53.9979 8.40673 53.3825 8.60333 52.8643 8.95722C52.3379 9.30324 51.8683 9.80654 51.5039 10.4042ZM39.1958 5.53633H43.5684V25H39.1958V5.53633Z" fill="white"/>
<path fill-rule="evenodd" clip-rule="evenodd" d="M41.2512 1C40.1447 1 39.2468 1.89813 39.2468 3.00474C39.2468 4.16749 40.1447 5.0576 41.2512 5.00949C42.3576 5.00949 43.2556 4.11136 43.2556 3.00474C43.2556 1.89813 42.3576 1 41.2512 1ZM15.0256 9.17134C15.7472 10.1015 16.2603 11.1681 16.6291 12.3468L16.6452 12.3148C17.0059 13.5016 17.1663 14.7846 17.1663 16.1639C17.1663 17.5512 17.0059 18.8342 16.6532 20.013C16.2844 21.1918 15.7712 22.2743 15.0497 23.1404C14.3281 24.0145 13.4461 24.7281 12.3638 25.2414C11.6422 25.5541 10.8645 25.8107 10.0387 25.915C10.0387 25.915 8.49126 26.1635 6.6873 25.8107C6.06995 25.6984 5.5007 25.5541 4.97955 25.2975C4.95986 25.2975 4.94822 25.2975 4.93805 25.2936C4.92338 25.2881 4.91175 25.2745 4.88334 25.2414C4.88334 25.1932 4.82722 25.1932 4.82722 25.1932H4.78713C4.46643 25.0409 4.20986 24.8885 3.9052 24.68C3.23172 24.2149 2.66247 23.7097 2.14132 23.0923C1.41974 22.2102 0.906616 21.1918 0.537806 19.9649C0.177014 18.7861 0.0166626 17.503 0.0166626 16.1158C0.0166626 14.7846 0.177014 13.4535 0.529789 12.2827C0.898598 11.0478 1.41172 10.0294 2.13331 9.09916C2.85489 8.23312 3.73683 7.51141 4.77911 6.99819C5.74122 6.54913 6.83162 6.2845 8.06633 6.22837C8.90016 6.18026 9.62174 6.22837 10.183 6.3246L10.9446 6.48498C10.9446 6.54111 11.0008 6.54111 11.0409 6.54111C11.105 6.59724 11.1531 6.59724 11.2012 6.59724C11.3054 6.59724 11.4177 6.6614 11.4177 6.6614C11.7224 6.74159 12.0831 6.90197 12.3798 7.06234C13.4221 7.56754 14.304 8.24113 15.0256 9.17134ZM36.2001 12.3468C35.8313 11.1681 35.3181 10.1015 34.5966 9.17134C33.875 8.24113 32.993 7.56754 31.9507 7.06234C31.6541 6.90197 31.2933 6.74159 30.9886 6.6614C30.9886 6.6614 30.8764 6.59724 30.7722 6.59724C30.7241 6.59724 30.6679 6.59724 30.6118 6.54111C30.5637 6.54111 30.5156 6.54111 30.5156 6.48498L29.7459 6.3246C29.1847 6.22837 28.4631 6.18026 27.6373 6.22837C26.4026 6.2845 25.3122 6.54913 24.3501 6.99819C23.3078 7.51141 22.4258 8.23312 21.7043 9.09916C20.9827 10.0294 20.4696 11.0478 20.1007 12.2827C19.748 13.4535 19.5876 14.7846 19.5876 16.1158C19.5876 17.503 19.748 18.7861 20.1088 19.9649C20.4776 21.1437 21.0388 22.2102 21.7123 23.0923C22.2334 23.7097 22.7947 24.2149 23.4761 24.68C23.7808 24.8885 24.3982 25.1932 24.3982 25.1932C24.3982 25.1932 24.4463 25.1932 24.4463 25.2414C24.4807 25.2414 24.4966 25.2575 24.5114 25.2724C24.5242 25.2854 24.5362 25.2975 24.5585 25.2975C25.0797 25.5541 25.6409 25.6984 26.2663 25.8107C28.0702 26.1635 29.6176 25.915 29.6176 25.915C30.4434 25.8107 31.2211 25.5541 31.9427 25.2414C33.0251 24.7281 33.899 24.0145 34.6286 23.1404C35.3502 22.2743 35.8633 21.1918 36.2321 20.013C36.5849 18.8342 36.7373 17.5512 36.7373 16.1639C36.7373 14.7846 36.5368 13.5016 36.2241 12.3148L36.2001 12.3468ZM24.1176 13.4695C24.326 12.6676 24.5826 11.8898 24.9434 11.2723C25.3042 10.6629 25.7692 10.1497 26.2823 9.79681C26.8035 9.43596 27.4208 9.23549 28.0863 9.23549C28.7597 9.23549 29.329 9.37983 29.8501 9.74068C30.3633 10.0935 30.7722 10.5426 31.133 11.1199C31.4937 11.7374 31.7503 12.403 31.9588 13.2209C32.1752 14.0389 32.2795 14.8648 32.2795 15.787V16.0917C32.2795 17.0139 32.1752 17.9361 32.0229 18.754C31.8144 19.58 31.5579 20.2937 31.1971 20.9191C30.8363 21.5286 30.3713 21.9857 29.8501 22.3465C29.337 22.7074 28.7277 22.8597 28.0462 22.8597C27.3727 22.8597 26.7634 22.6993 26.2422 22.3465C25.7211 21.9857 25.2561 21.5286 24.8953 20.9031C24.5265 20.2937 24.2699 19.58 24.0614 18.754C23.861 17.9361 23.8049 17.0139 23.8049 16.0917C23.861 15.2096 23.9652 14.2955 24.1256 13.4775L24.1176 13.4695ZM4.60273 13.4695C4.80317 12.6676 5.05973 11.8898 5.42053 11.2723C5.78132 10.6629 6.24634 10.1497 6.76748 9.79681C7.28061 9.43596 7.88995 9.23549 8.57144 9.23549C9.24492 9.23549 9.81417 9.37983 10.3353 9.74068C10.8404 10.0935 11.2573 10.5426 11.6181 11.1199C11.9789 11.7374 12.2355 12.403 12.4439 13.2209C12.6524 14.0389 12.7646 14.8648 12.7646 15.787L12.7486 16.0917C12.7486 17.0139 12.6524 17.9361 12.492 18.754C12.2916 19.58 12.027 20.2937 11.6662 20.9191C11.3135 21.5286 10.8484 21.9857 10.3353 22.3465C9.82219 22.7074 9.19681 22.8597 8.53135 22.8597C7.84986 22.8597 7.2325 22.6993 6.71136 22.3465C6.19823 21.9857 5.73321 21.5286 5.37242 20.9031C5.05172 20.3979 4.81119 19.6842 4.59471 18.8182C4.38626 17.9922 4.33013 17.054 4.33013 16.1398C4.33013 15.2176 4.38626 14.2955 4.5867 13.4775L4.60273 13.4695Z" fill="white"/>
</svg>
