<?xml version="1.0" standalone="no"?>
<!DOCTYPE svg PUBLIC "-//W3C//DTD SVG 20010904//EN"
 "http://www.w3.org/TR/2001/REC-SVG-20010904/DTD/svg10.dtd">
<svg version="1.0" xmlns="http://www.w3.org/2000/svg"
 width="266.000000pt" height="266.000000pt" viewBox="0 0 266.000000 266.000000"
 preserveAspectRatio="xMidYMid meet">
<metadata>
Created by potrace 1.14, written by Peter Selinger 2001-2017
</metadata>
<g transform="translate(0.000000,266.000000) scale(0.100000,-0.100000)"
fill="#000000" stroke="none">
<path d="M1282 2582 c-22 -3 -23 -4 -5 -18 12 -10 13 -12 3 -9 -13 5 -16 -4
-15 -50 l0 -55 -40 0 c-30 0 -36 -3 -25 -10 8 -5 10 -10 4 -10 -7 0 -15 -7
-18 -16 -3 -8 -2 -12 4 -9 6 3 10 0 10 -7 0 -8 -13 -13 -37 -13 -30 0 -38 -4
-37 -17 1 -10 -3 -15 -8 -12 -5 3 -7 12 -5 18 3 7 -1 13 -9 13 -8 0 -14 -6
-14 -13 0 -7 -4 -16 -10 -19 -6 -3 -7 1 -4 9 3 9 2 16 -3 16 -12 0 -13 -31 -2
-46 6 -8 -12 -12 -59 -14 -37 -1 -75 -3 -84 -4 -12 0 -14 -4 -8 -10 6 -6 10
-21 10 -35 0 -21 -2 -23 -10 -11 -6 10 -13 11 -17 5 -5 -6 -24 -10 -43 -10
-19 0 -43 -3 -52 -8 -10 -4 -18 -4 -18 2 0 5 -14 6 -32 2 -18 -4 -45 -7 -60
-6 -16 1 -28 -2 -28 -7 0 -4 5 -8 10 -8 6 0 10 -5 10 -11 0 -5 -4 -8 -9 -4 -5
3 -12 1 -15 -4 -4 -5 1 -8 10 -7 8 1 19 8 24 15 4 7 10 9 12 5 3 -5 3 -3 1 4
-1 7 2 10 8 7 6 -4 8 -13 5 -20 -3 -8 0 -15 5 -17 6 -2 -19 -5 -56 -6 -69 -3
-90 2 -79 19 4 6 10 6 18 0 9 -8 13 -7 13 4 0 7 -5 13 -11 12 -6 -1 -10 4 -8
12 3 12 1 12 -14 0 -12 -9 -15 -9 -10 -1 5 9 -8 12 -53 12 l-61 0 -1 -37 c0
-21 -2 -50 -3 -65 -2 -28 6 -32 52 -31 12 1 16 -15 12 -51 -1 -11 3 -15 9 -12
6 4 11 3 11 -3 0 -5 -3 -11 -7 -14 -5 -2 -2 -2 4 -1 7 2 13 -4 14 -14 0 -10 4
-7 10 10 7 18 15 25 25 21 12 -4 12 -8 -3 -19 -10 -7 -14 -14 -9 -14 5 0 3 -7
-4 -15 -8 -9 -8 -15 -2 -15 6 0 13 6 15 13 4 10 6 10 6 0 1 -9 21 -13 66 -13
l65 0 1 -37 c0 -21 0 -108 -1 -193 -1 -160 -5 -176 -42 -164 -18 5 -22 -2 -20
-44 1 -17 -3 -22 -13 -18 -8 3 -15 2 -15 -3 0 -4 -11 -6 -25 -3 -23 4 -25 2
-23 -29 l3 -33 -100 -1 -100 0 3 30 c3 28 1 30 -32 31 -21 1 -33 -3 -30 -8 4
-6 -3 -5 -14 1 -27 14 -35 14 -26 -1 5 -9 2 -9 -9 1 -15 12 -17 11 -17 -13 0
-19 4 -25 13 -20 9 6 9 4 -1 -8 -16 -19 -14 -118 3 -133 15 -14 38 -18 30 -5
-3 5 -1 10 4 10 11 0 15 -15 12 -34 -1 -5 4 -5 11 1 7 5 24 9 38 9 22 -1 25
-5 23 -31 l-3 -31 61 1 c33 0 63 -3 66 -8 3 -5 5 -81 5 -169 0 -122 -4 -163
-14 -169 -10 -7 -10 -9 0 -9 6 0 12 -10 12 -21 0 -16 -5 -20 -19 -16 -31 8
-48 -9 -46 -48 2 -24 -1 -33 -9 -28 -15 10 -37 10 -57 1 -9 -4 -20 -3 -26 3
-13 13 -38 -17 -38 -45 0 -23 -21 -29 -44 -12 -11 8 -13 8 -8 0 4 -7 -6 -11
-31 -10 -49 2 -62 11 -56 41 4 23 1 25 -24 23 -15 -1 -33 1 -39 5 -6 4 -14 3
-18 -2 -3 -5 -14 -8 -25 -6 -18 4 -20 -2 -20 -71 0 -45 4 -74 11 -74 5 0 8 4
5 9 -3 5 6 9 19 9 14 0 28 -4 31 -9 3 -5 0 -9 -6 -9 -8 0 -8 -6 0 -20 10 -18
8 -19 -15 -10 -14 5 -25 6 -25 1 0 -10 59 -23 71 -15 5 3 9 0 9 -6 0 -7 8 -9
21 -5 16 6 20 4 13 -6 -14 -23 -11 -46 5 -48 9 -1 40 -2 69 -2 41 -1 52 -4 53
-17 1 -9 2 -114 3 -232 l1 -214 988 -1 c649 0 991 3 995 10 4 6 7 109 7 230
l0 220 50 3 c28 2 69 4 92 5 22 1 39 5 36 10 -2 4 -15 5 -28 3 -17 -3 -22 -1
-18 10 3 8 10 11 17 7 6 -4 5 1 -3 10 -7 9 -12 17 -10 18 24 5 49 4 49 -3 0
-4 -4 -8 -10 -8 -5 0 -10 -5 -10 -11 0 -5 4 -8 9 -5 5 4 11 3 14 -1 2 -5 2 -3
1 4 -2 7 1 15 7 18 5 4 7 11 4 16 -4 5 -1 9 4 9 6 0 11 -5 11 -12 0 -6 3 -8 7
-5 3 4 -2 16 -12 27 -10 11 -13 20 -7 20 6 0 18 -10 26 -22 11 -15 16 -18 16
-8 0 13 2 13 11 0 9 -13 10 -13 6 0 -2 8 -9 15 -15 15 -16 0 -27 15 -11 16 8
1 17 1 20 1 3 -1 7 32 8 73 l2 73 -66 0 c-36 0 -64 -3 -61 -5 2 -2 1 -16 -3
-31 -7 -24 -12 -26 -57 -27 -27 -1 -55 3 -61 8 -8 6 -13 6 -13 0 0 -8 -32 -10
-50 -3 -3 1 -8 2 -12 1 -3 0 -5 7 -3 17 5 32 -13 51 -43 46 -26 -4 -28 -2 -30
33 -2 21 -8 42 -14 48 -8 7 -9 6 -4 -2 5 -9 -1 -13 -18 -13 -30 0 -27 -20 -30
225 -1 83 2 155 6 161 4 5 33 9 65 8 59 -1 80 10 61 33 -7 9 -7 13 1 13 7 0
10 4 7 8 -2 4 11 8 31 9 19 0 39 6 43 13 9 15 21 15 30 0 5 -9 9 -9 14 -1 4 6
2 11 -5 11 -8 0 -8 4 -2 13 6 6 11 48 12 92 1 57 -1 76 -9 65 -8 -12 -10 -12
-10 -1 0 11 -3 11 -17 0 -11 -10 -14 -10 -9 -1 5 8 0 12 -13 12 -12 0 -21 -4
-21 -10 0 -5 -5 -10 -11 -10 -5 0 -8 4 -4 9 3 6 -3 9 -14 8 -15 -1 -19 -8 -18
-32 l2 -30 -92 0 c-50 0 -89 3 -86 8 2 4 0 7 -6 7 -5 0 -11 -5 -13 -12 -3 -8
-7 -6 -10 4 -4 10 1 23 13 34 11 10 19 12 19 6 0 -7 -5 -12 -12 -12 -19 0 -2
-11 25 -16 29 -5 47 13 23 22 -9 3 -14 9 -12 13 2 3 -16 7 -40 7 -90 3 -87 1
-82 34 3 22 1 30 -11 30 -14 0 -14 1 -1 10 8 5 10 10 4 10 -6 0 -14 -3 -18 -7
-3 -4 -13 -8 -21 -9 -17 -3 -16 -14 -18 216 l-1 175 69 5 70 5 -3 31 c-3 29
-1 32 26 30 17 0 28 -4 25 -9 -2 -4 -9 -5 -14 -2 -15 10 -10 -2 8 -16 10 -8
14 -9 10 -2 -4 6 -3 14 3 18 5 3 10 22 10 42 0 32 2 34 17 22 11 -10 14 -10 9
-1 -4 7 -1 12 9 12 13 0 14 -4 5 -20 -6 -11 -15 -18 -21 -15 -5 4 -9 1 -9 -4
0 -15 13 -14 29 2 11 10 13 9 8 -6 -4 -10 -3 -16 2 -13 4 3 8 39 8 80 1 41 4
79 7 84 3 5 -1 15 -9 22 -10 8 -15 9 -15 1 0 -7 -8 -8 -25 -1 -20 8 -27 6 -31
-5 -5 -12 -8 -12 -22 2 -11 10 -17 12 -20 4 -2 -6 -7 -9 -11 -7 -4 3 -5 -8 -3
-24 l4 -30 -66 2 c-36 1 -66 4 -67 7 0 3 -2 13 -4 22 -3 17 18 20 32 4 4 -4 3
-5 -3 -2 -6 3 -11 0 -11 -7 0 -7 6 -13 13 -13 7 0 11 4 8 8 -2 4 0 10 5 13 5
4 12 -2 14 -11 3 -13 5 -12 6 5 1 16 5 21 14 16 6 -4 9 -3 4 1 -8 9 -25 11
-147 16 -61 3 -77 7 -86 22 -10 18 -12 18 -17 3 -4 -10 -3 -15 3 -11 6 3 10 2
10 -4 0 -17 -40 -8 -58 14 -9 11 -10 14 -2 8 19 -18 28 -16 40 7 6 11 7 20 3
19 -4 -1 -11 0 -15 1 -11 3 -59 7 -108 9 -26 1 -40 5 -39 14 1 6 1 23 0 37 -1
18 -4 21 -10 11 -5 -7 -11 -9 -14 -4 -4 6 -29 10 -57 9 -27 -1 -50 2 -50 7 0
4 6 7 13 7 8 0 8 3 -2 9 -8 5 -11 16 -8 25 5 12 0 16 -19 16 -15 0 -23 -4 -19
-11 5 -6 0 -6 -12 1 -15 10 -19 24 -19 71 0 33 -4 59 -9 58 -4 0 -12 5 -16 13
-7 11 -9 11 -9 -1 0 -10 -3 -11 -14 -2 -11 9 -16 9 -21 0 -4 -6 -10 -7 -14 -2
-3 4 -16 7 -29 5z m44 -37 c-1 -8 -5 -17 -8 -21 -5 -4 -4 16 1 34 3 9 9 -1 7
-13z m239 -185 c4 -6 -1 -7 -12 -3 -16 6 -16 5 -4 -10 11 -14 17 -15 30 -5 14
12 14 11 2 -5 -9 -12 -17 -14 -26 -7 -6 5 -14 7 -18 4 -4 -5 -3 16 2 34 2 6
21 1 26 -8z m-455 -20 c0 -5 -4 -10 -10 -10 -5 0 -10 5 -10 10 0 6 5 10 10 10
6 0 10 -4 10 -10z m628 -55 c-3 -3 -9 2 -12 12 -6 14 -5 15 5 6 7 -7 10 -15 7
-18z m-48 1 c0 -2 -7 -7 -16 -10 -8 -3 -12 -2 -9 4 6 10 25 14 25 6z m-1135
-86 c3 -6 -1 -7 -9 -4 -18 7 -21 14 -7 14 6 0 13 -4 16 -10z m1575 -705 c0 -2
-9 -3 -19 -2 -11 0 -18 5 -15 9 4 6 34 0 34 -7z m-1765 -23 c-3 -3 -11 0 -18
7 -9 10 -8 11 6 5 10 -3 15 -9 12 -12z m-35 -92 c0 -19 -4 -22 -32 -24 -18 -1
-16 28 2 36 25 11 30 9 30 -12z m2046 3 c-1 -7 -8 -19 -15 -26 -11 -10 -12 -7
-6 13 l8 25 -22 -25 c-19 -21 -20 -22 -12 -4 6 12 8 23 6 26 -2 2 6 4 19 4 14
0 23 -5 22 -13z m-1983 -601 c2 7 4 0 4 -15 0 -20 -4 -27 -13 -23 -8 3 -14 1
-14 -5 0 -5 -6 -4 -14 3 -15 14 -15 25 -2 47 8 12 11 11 22 -3 9 -13 13 -14
17 -4z m2102 -22 c-3 -5 -12 -10 -18 -10 -7 0 -6 4 3 10 19 12 23 12 15 0z
m33 -25 c-3 -3 -9 2 -12 12 -6 14 -5 15 5 6 7 -7 10 -15 7 -18z m42 -69 c0 -2
-7 -6 -15 -10 -8 -3 -15 -1 -15 4 0 6 7 10 15 10 8 0 15 -2 15 -4z"/>
<path d="M299 1373 c-13 -16 -12 -17 4 -4 9 7 17 15 17 17 0 8 -8 3 -21 -13z"/>
<path d="M355 781 c-3 -6 -1 -11 5 -11 6 0 9 -4 6 -8 -3 -5 1 -9 9 -9 12 0 12
3 3 16 -7 9 -13 17 -14 19 -1 2 -5 -1 -9 -7z"/>
<path d="M890 2313 c0 -6 8 -17 18 -24 16 -13 16 -13 2 6 -8 11 -16 22 -17 24
-2 2 -3 0 -3 -6z"/>
<path d="M1770 2311 c0 -6 4 -12 8 -15 5 -3 9 1 9 9 0 8 -4 15 -9 15 -4 0 -8
-4 -8 -9z"/>
<path d="M876 2273 c-6 -14 -5 -15 5 -6 7 7 10 15 7 18 -3 3 -9 -2 -12 -12z"/>
<path d="M470 2099 c0 -4 6 -10 13 -12 9 -4 8 -8 -3 -16 -12 -9 -11 -10 8 -8
30 4 48 22 31 32 -7 5 -10 4 -5 -3 3 -6 2 -13 -4 -17 -9 -5 -14 6 -12 26 1 3
-6 6 -14 6 -7 0 -14 -4 -14 -8z"/>
<path d="M2070 2045 c0 -5 5 -17 10 -25 5 -8 10 -10 10 -5 0 6 -5 17 -10 25
-5 8 -10 11 -10 5z"/>
<path d="M536 2003 c-6 -14 -5 -15 5 -6 7 7 10 15 7 18 -3 3 -9 -2 -12 -12z"/>
<path d="M2095 2000 c-3 -5 -1 -10 4 -10 6 0 11 5 11 10 0 6 -2 10 -4 10 -3 0
-8 -4 -11 -10z"/>
<path d="M678 1633 c7 -3 16 -2 19 1 4 3 -2 6 -13 5 -11 0 -14 -3 -6 -6z"/>
<path d="M1941 1624 c0 -11 3 -14 6 -6 3 7 2 16 -1 19 -3 4 -6 -2 -5 -13z"/>
<path d="M540 1520 c8 -5 9 -9 1 -14 -16 -10 -14 -33 4 -33 8 0 12 4 9 9 -8
12 10 10 23 -3 9 -9 11 -7 8 7 -2 11 -4 21 -5 24 -1 3 -2 7 -2 10 0 3 -11 6
-25 7 -16 0 -21 -2 -13 -7z m34 -18 c2 -4 -4 -8 -14 -8 -10 0 -16 4 -14 8 3 4
9 8 14 8 5 0 11 -4 14 -8z"/>
<path d="M371 1312 c-1 -8 -6 -10 -13 -6 -10 5 -10 4 -1 -6 15 -16 28 -8 20
12 -4 11 -6 11 -6 0z"/>
<path d="M2285 1300 c4 -6 1 -19 -7 -28 -11 -15 -11 -15 3 -5 9 7 19 10 22 6
9 -8 9 1 1 21 -3 9 -10 16 -16 16 -5 0 -6 -5 -3 -10z"/>
<path d="M340 1282 c0 -16 32 -24 44 -11 8 9 8 10 -2 5 -7 -4 -19 -2 -27 4 -9
7 -15 8 -15 2z"/>
<path d="M470 926 c0 -2 7 -7 16 -10 8 -3 12 -2 9 4 -6 10 -25 14 -25 6z"/>
<path d="M2175 921 c-3 -5 -2 -12 3 -15 5 -3 9 1 9 9 0 17 -3 19 -12 6z"/>
<path d="M2286 794 c-14 -10 -16 -14 -5 -14 11 0 11 -2 1 -9 -10 -6 -10 -10 3
-21 13 -11 14 -10 8 6 -6 17 -5 17 10 5 9 -7 17 -12 18 -10 6 31 5 40 -4 48
-8 6 -19 4 -31 -5z m30 -20 c2 -12 -1 -13 -12 -3 -7 6 -11 16 -8 21 7 11 17 3
20 -18z"/>
<path d="M91 646 l-24 -13 25 0 c14 0 25 5 25 13 0 8 -1 14 -1 14 -1 -1 -12
-7 -25 -14z"/>
<path d="M146 573 c-10 -26 11 -40 31 -20 10 9 12 17 6 17 -6 0 -13 -6 -16
-12 -2 -7 -8 -10 -12 -6 -4 4 -2 14 5 23 7 8 8 15 2 15 -5 0 -13 -8 -16 -17z"/>
</g>
</svg>
